<?xml version="1.0" standalone="no"?>
<!DOCTYPE svg PUBLIC "-//W3C//DTD SVG 20010904//EN"
 "http://www.w3.org/TR/2001/REC-SVG-20010904/DTD/svg10.dtd">
<svg version="1.0" xmlns="http://www.w3.org/2000/svg"
 width="758.000000pt" height="758.000000pt" viewBox="0 0 758.000000 758.000000"
 preserveAspectRatio="xMidYMid meet">
 <rect width="100%" height="100%" fill="#ffffff"/>

<g transform="translate(0.000000,758.000000) scale(0.100000,-0.100000)"
fill="#000000" stroke="none">
<path d="M3522 6819 c-323 -39 -697 -214 -909 -426 l-58 -58 -805 -3 c-553 -2
-812 -6 -826 -13 -44 -22 -46 -45 -45 -399 1 -344 8 -503 21 -495 4 3 13 24
19 49 11 46 21 53 93 66 33 6 41 3 68 -27 18 -18 35 -33 40 -33 4 0 13 -20 20
-45 11 -38 10 -53 0 -85 -18 -55 -36 -68 -100 -71 -30 -2 -61 -8 -68 -13 -8
-6 -17 -5 -24 2 -14 14 -39 80 -41 109 -1 12 -5 25 -9 29 -9 9 -9 34 -7 -1026
1 -465 3 -1107 3 -1427 1 -321 3 -583 5 -583 7 0 373 -60 486 -79 159 -28 218
-34 210 -21 -3 5 -15 10 -25 10 -11 0 -39 5 -62 10 -110 27 -516 99 -561 100
-11 0 -8 1108 4 1115 5 4 9 2 9 -4 0 -5 26 -12 58 -16 31 -3 71 -7 89 -10 24
-3 33 1 36 13 3 9 5 -145 6 -343 2 -365 9 -700 16 -722 7 -21 32 -15 38 10 3
12 7 246 8 519 2 273 6 520 10 550 l6 53 3 -70 c1 -38 5 -61 7 -50 9 35 20 40
80 39 50 -2 60 -5 71 -25 l14 -24 -6 26 c-5 23 -2 27 19 27 24 0 35 -23 15
-30 -5 -1 -12 -30 -15 -63 l-4 -60 25 89 c33 122 80 239 179 446 98 207 153
337 171 402 6 26 15 110 19 187 l7 139 -31 7 c-48 10 -76 58 -76 129 1 54 3
60 35 87 22 19 43 28 58 26 21 -4 22 -1 22 59 0 34 5 131 10 216 28 413 68
606 196 930 38 97 53 145 48 163 -3 14 -3 36 0 50 9 36 56 44 259 43 144 0
175 -3 160 -13 -10 -6 -29 -15 -43 -18 -46 -11 -86 -107 -61 -146 6 -9 0 -29
-19 -60 -37 -64 -103 -212 -128 -291 -88 -274 -127 -591 -131 -1065 -1 -137
-6 -314 -11 -392 -10 -162 -5 -147 -178 -503 -50 -102 -107 -225 -126 -274
-139 -343 -131 -641 18 -773 29 -25 46 -50 51 -73 46 -225 136 -365 281 -440
88 -46 96 -65 23 -56 -107 13 -134 17 -159 26 -38 14 -138 30 -185 30 -58 0
-105 25 -105 55 0 27 -19 75 -30 75 -10 0 -20 -38 -20 -77 0 -30 -3 -33 -31
-33 -16 0 -28 -4 -25 -8 3 -5 -39 -14 -92 -21 -53 -7 -112 -19 -130 -26 -29
-13 -32 -18 -32 -58 0 -34 7 -53 30 -82 17 -21 30 -38 30 -39 0 -6 -48 1 -59
8 -10 7 -12 6 -6 -4 6 -9 0 -11 -21 -6 -16 3 -74 12 -129 21 -89 14 -181 29
-240 40 -11 2 -29 4 -40 4 -17 1 -18 3 -5 12 12 8 10 9 -10 7 l-25 -3 0 -675
c0 -546 3 -682 14 -714 19 -55 73 -110 134 -136 l52 -23 2671 -1 2672 -1 43
31 c24 17 58 51 74 75 l30 44 3 519 c2 480 4 521 21 545 53 78 60 182 18 272
-15 30 -36 65 -48 78 -12 12 -21 32 -21 44 5 342 10 2098 6 2090 -3 -7 -12
-13 -20 -13 -9 0 -14 -11 -14 -29 0 -16 -7 -34 -15 -41 -8 -7 -15 -9 -15 -4 0
5 -24 10 -53 12 -44 2 -57 8 -90 40 -56 54 -63 70 -35 81 19 7 23 15 23 64 1
53 0 56 -24 60 -15 2 -5 5 20 6 58 1 120 26 126 50 5 20 43 18 43 -3 0 -16 49
-70 57 -63 4 4 7 115 7 247 1 179 -2 242 -12 252 -10 10 -15 4 -28 -28 -9 -23
-22 -41 -30 -41 -8 0 -14 4 -14 8 0 4 -13 10 -29 14 -39 8 -66 33 -84 76 -15
37 -13 112 3 117 6 2 10 8 10 14 0 19 49 57 87 67 20 6 37 9 38 8 28 -50 43
-68 51 -56 5 8 10 192 11 409 2 217 3 477 4 576 1 154 -1 185 -15 207 -10 14
-25 29 -34 34 -9 4 -363 9 -786 11 l-768 3 -68 57 c-57 48 -149 101 -267 155
-12 5 -34 9 -50 9 -19 0 -42 14 -75 44 -88 82 -324 177 -513 208 -94 15 -369
18 -473 5z m48 -60 c-105 -13 -218 -38 -320 -71 -102 -32 -273 -114 -329 -156
l-35 -26 27 -9 c16 -5 27 -16 27 -27 0 -22 -95 -110 -119 -110 -23 1 -49 23
-44 38 11 31 -30 6 -105 -64 -52 -48 -88 -74 -99 -72 -14 3 4 26 72 94 77 78
203 184 218 184 3 0 36 18 75 39 184 105 473 189 647 189 48 -1 48 -1 -15 -9z
m1066 -256 c65 -22 146 -66 213 -116 55 -40 131 -116 131 -129 0 -20 -32 -4
-76 38 -101 95 -199 162 -293 200 -65 27 -48 32 25 7z m-1656 -81 c0 -5 21
-23 46 -40 65 -46 57 -62 -41 -83 -92 -20 -115 -22 -134 -10 -40 26 53 137
117 140 6 1 12 -3 12 -7z m135 -123 c0 -8 -10 -15 -22 -17 -25 -4 -30 7 -11
26 15 15 33 10 33 -9z m3365 3 c46 -22 50 -56 16 -115 -41 -70 -58 -81 -113
-73 -26 3 -50 12 -55 19 -4 6 -8 8 -8 3 0 -20 -57 55 -67 88 -18 59 20 78 182
94 6 1 26 -7 45 -16z m-5356 -18 c16 -9 18 -19 12 -55 -4 -24 -10 -50 -14 -57
-18 -27 -194 -55 -184 -28 2 5 -2 12 -8 16 -19 12 -24 92 -7 114 24 32 152 39
201 10z m369 10 c39 -6 67 -34 67 -69 0 -11 -20 -38 -47 -62 -44 -39 -53 -42
-102 -43 -75 0 -117 32 -127 96 -7 52 -2 60 52 79 37 13 70 13 157 -1z m3567
6 c0 -5 -2 -10 -4 -10 -3 0 -8 5 -11 10 -3 6 -1 10 4 10 6 0 11 -4 11 -10z
m201 0 l150 0 35 -77 c45 -97 95 -241 140 -403 54 -196 114 -661 114 -884 l0
-69 45 5 c43 5 46 4 75 -35 40 -54 42 -121 5 -165 -14 -17 -25 -32 -25 -35 0
-4 -11 -17 -25 -31 -25 -25 -25 -25 -26 -3 0 12 -3 16 -6 9 -2 -6 -9 -9 -15
-6 -8 5 -9 -46 -4 -167 7 -161 10 -182 41 -276 59 -178 214 -535 229 -526 5 3
6 1 2 -5 -5 -9 36 -137 48 -149 2 -2 3 14 2 36 0 22 4 45 9 50 7 7 10 -1 11
-20 1 -20 -2 -26 -7 -17 -7 10 -9 9 -9 -3 0 -33 30 -43 144 -50 61 -3 99 -6
84 -7 -31 -2 -39 -22 -9 -22 11 0 23 -4 26 -10 3 -5 -1 -10 -9 -10 -22 0 -91
-43 -77 -48 7 -2 26 6 43 18 16 12 32 19 35 16 4 -3 1 -6 -6 -6 -7 0 -9 -4 -6
-10 3 -5 -1 -10 -9 -10 -9 0 -16 -5 -16 -11 0 -6 9 -8 22 -4 17 6 20 4 14 -11
-6 -18 -5 -18 9 0 12 16 12 22 2 28 -8 5 -5 8 8 8 12 0 27 6 34 13 11 10 12 9
6 -1 -4 -8 0 -21 11 -33 21 -24 37 -25 30 -1 -3 9 -1 24 5 32 8 12 9 11 5 -5
-8 -31 5 -40 56 -40 40 0 47 3 42 17 -2 9 -1 19 3 21 8 5 13 -221 16 -849 l2
-371 -25 15 c-45 28 -70 55 -70 77 0 15 -11 27 -35 38 -44 21 -199 47 -280 47
l-59 0 34 31 c24 21 26 24 6 10 -33 -24 -46 -20 -47 17 0 15 -6 43 -13 62 -12
34 -13 34 -24 13 -7 -12 -15 -42 -18 -66 -4 -25 -9 -49 -13 -54 -3 -5 -75 -15
-158 -21 -167 -12 -243 -34 -243 -69 0 -14 -18 -25 -77 -44 -43 -14 -86 -29
-95 -33 -36 -16 -18 41 39 125 88 130 115 223 114 398 -1 52 3 99 8 105 5 6
17 38 27 71 23 79 24 335 0 410 -19 60 -13 71 9 19 70 -164 100 -312 92 -450
-7 -114 -30 -186 -78 -246 -33 -42 -35 -48 -14 -48 51 0 137 74 175 150 66
131 69 372 7 570 -25 78 -109 294 -123 315 -8 11 -14 25 -14 31 0 7 -17 50
-39 96 -36 79 -106 280 -137 396 -12 46 -21 109 -39 292 -2 25 -7 140 -10 255
-10 380 -36 696 -69 840 -7 33 -19 87 -26 120 -20 97 -58 212 -111 337 -46
107 -49 119 -35 134 18 17 22 94 6 94 -5 0 -10 8 -10 18 0 20 -63 58 -79 48
-6 -4 -11 0 -11 9 0 12 5 15 16 11 9 -3 83 -6 165 -6z m-3385 -6 c11 -3 28
-18 37 -33 15 -26 15 -30 -1 -58 -41 -72 -47 -76 -112 -77 -59 -1 -63 1 -96
36 -19 21 -34 46 -34 57 0 11 -2 25 -5 33 -10 25 45 47 120 48 39 0 79 -3 91
-6z m1388 -4 c14 -5 33 -21 42 -36 18 -26 17 -27 -7 -46 -20 -17 -34 -19 -87
-15 -34 4 -71 12 -82 20 -19 13 -18 15 13 44 46 44 74 51 121 33z m1593 -25
c23 -14 43 -29 43 -32 0 -11 -33 -43 -44 -43 -17 0 -76 63 -76 82 0 25 25 23
77 -7z m-2347 -20 c0 -28 -15 -33 -24 -8 -4 9 -1 20 6 25 18 11 18 11 18 -17z
m2623 -17 c-5 -25 -1 -34 18 -50 l24 -19 -24 7 c-20 5 -23 3 -18 -11 5 -11 3
-15 -5 -12 -7 2 -12 13 -11 23 4 36 -4 45 -33 34 -18 -7 -30 -7 -39 0 -6 5
-14 7 -17 4 -3 -3 -9 0 -13 5 -3 6 0 14 9 17 8 3 12 12 9 20 -9 23 10 16 34
-13 21 -27 22 -27 23 -6 0 22 28 46 42 37 4 -3 5 -19 1 -36z m-2665 5 c-2 -10
-14 -19 -26 -21 -23 -4 -23 -3 -5 16 23 25 35 27 31 5z m93 -17 c6 -21 3 -33
-11 -48 -10 -11 -23 -17 -29 -13 -18 10 -13 25 9 25 11 0 20 5 20 10 0 6 -4
10 -10 10 -5 0 -10 12 -10 26 0 34 22 27 31 -10z m2416 -12 c6 -17 -8 -31 -45
-40 -34 -9 -38 3 -12 31 27 29 48 32 57 9z m-2487 -23 c0 -13 -26 -32 -33 -24
-14 13 -6 33 13 33 11 0 20 -4 20 -9z m185 -11 c0 -23 -59 -20 -63 3 -3 15 2
18 30 15 21 -2 33 -8 33 -18z m2375 0 c0 -5 -8 -10 -17 -10 -15 0 -16 2 -3 10
19 12 20 12 20 0z m-1672 -23 c4 -20 -25 -34 -40 -19 -15 15 -1 44 19 40 10
-2 19 -11 21 -21z m1462 -2 c-7 -8 -16 -15 -21 -15 -5 0 -9 7 -9 15 0 9 9 15
21 15 18 0 19 -2 9 -15z m-2326 -16 c-8 -14 -24 -10 -24 6 0 9 6 12 15 9 8 -4
12 -10 9 -15z m2366 13 c0 -4 -5 -13 -10 -18 -12 -12 -3 -44 11 -44 5 0 9 -4
9 -10 0 -15 -21 -12 -41 6 -17 15 -17 19 -3 45 13 27 34 39 34 21z m-2440 -12
c0 -5 -2 -10 -4 -10 -3 0 -8 5 -11 10 -3 6 -1 10 4 10 6 0 11 -4 11 -10z m310
-41 c-8 -14 -15 -18 -22 -11 -6 6 -16 8 -23 6 -6 -3 -18 3 -26 12 -12 15 -12
16 9 10 14 -5 22 -3 22 4 0 7 7 9 15 6 10 -3 18 1 23 12 6 16 7 16 10 0 2 -9
-2 -27 -8 -39z m2003 45 c11 -11 -34 -44 -60 -44 -31 0 -29 12 5 32 29 19 45
22 55 12z m157 -25 c0 -5 -4 -9 -10 -9 -5 0 -10 7 -10 16 0 8 5 12 10 9 6 -3
10 -10 10 -16z m110 11 c0 -5 -6 -10 -14 -10 -8 0 -16 -5 -18 -12 -4 -11 -48
-23 -48 -13 0 7 62 45 73 45 4 0 7 -4 7 -10z m-206 -15 c-7 -17 -20 -20 -28
-6 -7 10 3 21 20 21 8 0 11 -6 8 -15z m-2206 -5 c8 0 12 -6 10 -12 -5 -15 -78
-30 -78 -16 0 4 4 8 10 8 5 0 7 7 3 17 -5 13 -2 15 18 10 13 -4 30 -7 37 -7z
m185 -7 c-8 -3 -9 -12 -3 -29 7 -19 6 -24 -5 -24 -20 0 -32 50 -14 60 7 5 18
6 23 3 6 -4 6 -8 -1 -10z m682 7 c10 -16 -14 -50 -36 -50 -25 0 -35 25 -19 45
14 17 46 20 55 5z m-562 -35 c-33 -25 -73 -14 -73 20 0 8 57 10 73 2 18 -8 18
-9 0 -22z m1697 -3 c-1 -24 -40 -70 -47 -54 -2 6 -9 10 -14 6 -5 -3 -9 2 -9
10 0 8 5 18 10 21 6 3 10 1 10 -6 0 -8 4 -8 15 1 8 7 12 16 9 21 -7 12 5 31
17 24 5 -4 9 -14 9 -23z m220 8 c0 -5 -7 -10 -15 -10 -8 0 -15 5 -15 10 0 6 7
10 15 10 8 0 15 -4 15 -10z m247 -22 c-3 -7 -5 -2 -5 12 0 14 2 19 5 13 2 -7
2 -19 0 -25z m36 7 c-7 -21 -13 -19 -13 6 0 11 4 18 10 14 5 -3 7 -12 3 -20z
m1027 10 c0 -8 -7 -15 -15 -15 -8 0 -15 7 -15 15 0 8 7 15 15 15 8 0 15 -7 15
-15z m-3646 -26 c-25 -27 -37 -23 -18 6 9 14 20 22 26 19 5 -3 2 -14 -8 -25z
m2176 -21 c0 -5 -6 -8 -14 -8 -15 0 -29 38 -19 53 5 9 32 -28 33 -45z m-2240
31 c0 -5 -9 -31 -21 -57 -11 -26 -29 -65 -39 -87 -9 -22 -24 -56 -33 -75 -28
-64 -49 -124 -78 -230 -15 -58 -28 -96 -29 -85 0 42 31 176 63 271 54 154 137
315 137 263z m302 4 c-10 -4 -10 -8 -1 -19 12 -15 9 -17 -15 -8 -19 7 -9 34
13 33 11 0 12 -2 3 -6z m1777 -10 c-7 -10 -13 -19 -14 -20 0 -1 -12 -4 -28 -8
-20 -5 -27 -3 -27 7 0 22 22 38 53 38 26 0 28 -2 16 -17z m334 -8 c-22 -17
-30 -11 -13 10 7 8 17 12 22 9 5 -3 1 -12 -9 -19z m757 0 c0 -19 -27 -26 -34
-8 -3 8 -4 19 -1 23 8 13 35 1 35 -15z m-2910 1 c0 -3 -4 -8 -10 -11 -5 -3
-10 -1 -10 4 0 6 5 11 10 11 6 0 10 -2 10 -4z m340 -16 c0 -5 -6 -11 -12 -14
-10 -3 -8 -9 4 -19 17 -14 15 -27 -5 -27 -6 0 -7 3 -4 7 9 8 -24 32 -45 33
-20 0 -21 2 -13 22 6 15 75 13 75 -2z m3484 -15 c8 -13 18 -35 22 -49 3 -14
10 -26 15 -26 5 0 9 -5 9 -11 0 -5 -4 -7 -10 -4 -5 3 -10 1 -10 -4 0 -6 5 -11
11 -11 8 0 8 -4 2 -12 -5 -7 -17 -33 -26 -58 l-17 -45 -63 -3 c-57 -3 -68 0
-98 24 -19 16 -35 28 -36 29 -1 1 -4 18 -7 38 -4 32 1 44 27 74 45 52 111 91
141 86 14 -3 32 -15 40 -28z m-4571 10 c8 -18 -11 -31 -25 -17 -11 11 -3 32
12 32 4 0 10 -7 13 -15z m2427 -5 c0 -13 9 -22 25 -26 21 -5 23 -9 14 -21 -7
-8 -15 -10 -18 -5 -3 5 -20 7 -37 5 -28 -4 -30 -7 -26 -36 4 -28 3 -30 -10
-19 -20 16 -29 82 -11 82 7 0 10 6 7 14 -5 13 0 16 49 25 4 0 7 -8 7 -19z
m400 15 c0 -2 -12 -16 -27 -32 -24 -23 -28 -25 -31 -10 -5 23 15 47 39 47 11
0 19 -2 19 -5z m-3611 -51 c63 -56 80 -88 73 -133 -3 -26 -14 -39 -48 -60 -39
-25 -48 -27 -100 -20 -83 11 -114 54 -105 148 5 49 68 109 117 111 7 0 35 -21
63 -46z m1986 36 c3 -6 -1 -13 -9 -16 -21 -8 -66 3 -66 16 0 13 67 13 75 0z
m1480 0 c-4 -6 -2 -17 4 -24 9 -10 8 -15 -5 -20 -22 -9 -46 23 -30 40 13 16
40 18 31 4z m-1359 -19 c28 -22 17 -36 -22 -27 -15 4 -24 14 -24 26 0 25 15
25 46 1z m979 9 c-3 -5 -1 -10 4 -10 6 0 11 -6 11 -14 0 -8 -14 -16 -37 -18
-47 -6 -49 -4 -35 27 8 17 20 25 37 25 15 0 24 -4 20 -10z m-1420 -16 c-9 -9
-19 -13 -23 -10 -3 4 0 11 8 16 24 15 33 11 15 -6z m1255 2 c0 -8 -31 -36 -41
-36 -18 0 -9 21 14 30 28 11 27 11 27 6z m1113 -78 c43 -102 52 -132 81 -281
27 -135 19 -143 -14 -17 -12 47 -46 149 -76 226 -30 78 -54 144 -54 148 0 3 6
6 14 6 8 0 29 -36 49 -82z m-3308 42 c-5 -8 -11 -8 -17 -2 -6 6 -7 16 -3 22 5
8 11 8 17 2 6 -6 7 -16 3 -22z m1035 26 c0 -3 -4 -8 -10 -11 -5 -3 -10 -1 -10
4 0 6 5 11 10 11 6 0 10 -2 10 -4z m70 -15 c16 -30 12 -36 -10 -16 -21 19 -26
35 -10 35 5 0 14 -9 20 -19z m210 10 c0 -5 -7 -11 -15 -15 -15 -5 -20 5 -8 17
9 10 23 9 23 -2z m219 -1 c11 0 11 -3 1 -15 -13 -16 -47 -20 -74 -9 -15 6 -15
8 1 20 10 8 27 12 38 9 11 -3 26 -5 34 -5z m121 -5 c30 -15 32 -45 4 -45 -8 0
-14 -4 -14 -10 0 -5 2 -10 4 -10 2 0 12 -3 22 -7 13 -5 15 -3 9 7 -5 8 -4 11
3 6 15 -9 4 -36 -16 -36 -20 0 -52 29 -52 47 0 8 -8 13 -17 12 -36 -3 -37 2
-8 26 36 29 30 28 65 10z m260 -10 c-10 -12 -9 -15 6 -16 11 -1 23 -1 28 0 5
1 6 -5 2 -14 -3 -9 -6 -21 -6 -26 0 -4 -7 -6 -15 -3 -8 4 -15 13 -15 21 0 8
-5 11 -11 8 -6 -4 -8 -13 -5 -21 3 -8 -1 -14 -10 -14 -8 0 -17 6 -20 14 -3 9
-12 12 -22 8 -15 -5 -15 -4 0 12 10 9 22 15 28 11 6 -3 7 1 4 9 -4 11 2 19 17
25 30 11 36 6 19 -14z m200 17 c0 -18 -36 -39 -74 -45 -38 -6 -38 -6 -20 15
28 31 94 52 94 30z m130 -12 c0 -11 -6 -20 -13 -20 -7 0 -22 -7 -33 -15 -17
-14 -15 -14 20 0 26 10 43 12 49 6 7 -7 4 -13 -9 -17 -10 -4 -22 -12 -26 -18
-5 -7 -8 -7 -8 2 0 6 -5 12 -11 12 -6 0 -8 -7 -5 -17 4 -10 4 -14 0 -10 -4 4
-17 1 -30 -7 -21 -15 -34 -12 -34 7 0 5 7 7 15 3 18 -6 20 5 4 21 -6 6 -18 9
-27 6 -10 -4 -13 -1 -10 8 2 7 19 17 38 20 18 4 37 14 42 23 13 23 38 20 38
-4z m454 -1 c-3 -5 -10 -7 -15 -3 -5 3 -7 10 -3 15 3 5 10 7 15 3 5 -3 7 -10
3 -15z m238 -21 c-8 -8 -9 -4 -5 13 4 13 8 18 11 10 2 -7 -1 -18 -6 -23z
m1003 2 c0 -18 -6 -26 -23 -28 -24 -4 -38 18 -28 44 3 9 15 14 28 12 17 -2 23
-10 23 -28z m-3101 5 c-4 -8 -8 -15 -10 -15 -2 0 -4 7 -4 15 0 8 4 15 10 15 5
0 7 -7 4 -15z m226 6 c0 -12 -20 -25 -27 -18 -7 7 6 27 18 27 5 0 9 -4 9 -9z
m295 -1 c3 -5 11 -7 18 -5 7 3 19 1 27 -5 12 -7 12 -12 2 -22 -9 -9 -12 -9
-12 0 0 7 -9 12 -20 12 -23 0 -23 0 -10 -34 10 -27 5 -32 -19 -17 -7 5 -10 14
-7 20 4 6 0 14 -9 18 -10 3 -21 0 -26 -8 -6 -11 -11 -11 -21 -1 -9 9 -9 12 3
12 8 0 20 9 27 20 13 21 37 26 47 10z m453 -2 c-6 -16 -55 -34 -65 -25 -9 10
27 36 50 37 11 0 17 -5 15 -12z m162 2 c0 -5 -2 -10 -4 -10 -3 0 -8 5 -11 10
-3 6 -1 10 4 10 6 0 11 -4 11 -10z m660 -9 c0 -34 -72 -51 -78 -19 -2 13 6 18
35 21 21 2 39 4 41 5 1 1 2 -2 2 -7z m-130 -16 c0 -8 -2 -15 -4 -15 -2 0 -11
-3 -19 -6 -12 -4 -14 0 -10 15 6 24 33 29 33 6z m-1270 -20 c0 -19 -26 -26
-56 -15 -33 13 -24 26 20 27 23 1 36 -4 36 -12z m368 -18 c4 -19 -6 -21 -27
-8 -16 10 -5 34 12 28 7 -2 13 -11 15 -20z m372 -2 c-7 -8 -16 -15 -21 -15 -5
0 -6 7 -3 15 4 8 13 15 21 15 13 0 13 -3 3 -15z m-650 -5 c0 -5 -4 -10 -9 -10
-6 0 -13 5 -16 10 -3 6 1 10 9 10 9 0 16 -4 16 -10z m1073 -5 c-3 -14 -75 -27
-86 -16 -5 5 -6 14 -2 21 8 14 91 9 88 -5z m314 -7 c-3 -8 -6 -5 -6 6 -1 11 2
17 5 13 3 -3 4 -12 1 -19z m-1202 2 c19 -8 19 -9 -2 -9 -12 -1 -25 4 -28 9 -7
12 2 12 30 0z m375 -16 c0 -8 -4 -12 -10 -9 -5 3 -10 10 -10 16 0 5 5 9 10 9
6 0 10 -7 10 -16z m44 10 c20 -8 21 -24 2 -24 -8 0 -16 7 -20 15 -6 17 -4 18
18 9z m-294 -13 c0 -18 -18 -21 -30 -6 -10 13 -9 15 9 15 11 0 21 -4 21 -9z
m165 -11 c0 -19 -37 -25 -64 -10 -35 18 -24 31 22 28 29 -2 42 -8 42 -18z
m295 11 c0 -10 -80 -22 -94 -14 -5 4 -1 10 10 14 27 11 84 11 84 0z m-605 -11
c8 -13 -25 -13 -45 0 -12 8 -9 10 12 10 15 0 30 -4 33 -10z m177 -25 c3 -13 1
-22 -3 -19 -9 5 -13 44 -5 44 2 0 6 -11 8 -25z m793 15 c3 -5 1 -10 -4 -10 -6
0 -11 5 -11 10 0 6 2 10 4 10 3 0 8 -4 11 -10z m40 0 c3 -5 -1 -10 -10 -10 -9
0 -13 5 -10 10 3 6 8 10 10 10 2 0 7 -4 10 -10z m-1172 -22 c2 -7 1 -22 -4
-33 -9 -23 -11 -20 -13 18 -2 28 8 37 17 15z m-1813 -59 c66 -41 77 -61 53
-102 -11 -18 -32 -36 -47 -42 -54 -19 -138 53 -121 104 6 19 49 71 59 71 3 0
28 -14 56 -31z m2420 6 c0 -8 -4 -17 -10 -20 -6 -4 -10 5 -10 20 0 15 4 24 10
20 6 -3 10 -12 10 -20z m-318 -17 c-8 -8 -9 -4 -5 13 4 13 8 18 11 10 2 -7 -1
-18 -6 -23z m608 18 c0 -8 -4 -18 -10 -21 -5 -3 -10 3 -10 14 0 12 5 21 10 21
6 0 10 -6 10 -14z m2082 -24 c43 -20 58 -47 58 -105 0 -107 -116 -180 -209
-132 -33 17 -61 78 -61 133 0 45 31 80 100 111 47 21 51 21 112 -7z m-1991
-19 c22 -14 52 -47 67 -72 14 -25 34 -55 44 -65 10 -11 18 -25 18 -31 0 -7 11
-28 24 -48 l24 -35 -21 -6 c-12 -3 -43 -6 -68 -6 -127 0 -286 -108 -235 -159
12 -11 27 -9 103 19 103 37 226 49 314 31 48 -10 60 -17 92 -59 l36 -47 -82
-2 c-202 -6 -375 -40 -479 -95 -75 -40 -87 -54 -99 -125 l-11 -60 -38 19 c-48
24 -166 26 -229 3 -24 -8 -46 -14 -48 -12 -1 2 -7 25 -12 50 -4 26 -15 57 -24
70 -20 31 -124 80 -214 102 -40 9 -73 18 -73 20 0 7 152 75 169 75 12 0 37 16
56 34 19 19 83 59 142 88 126 63 264 151 346 221 46 39 63 48 82 43 21 -5 26
-2 31 21 5 23 28 53 41 53 2 0 22 -12 44 -27z m1672 -124 c12 -50 -5 -85 -49
-104 -20 -8 -47 -15 -59 -15 -33 0 -67 46 -63 84 3 28 8 33 68 53 36 12 72 21
80 20 8 -1 18 -18 23 -38z m-4153 -41 c19 -6 53 -24 77 -40 41 -28 42 -30 38
-75 -6 -54 -24 -85 -63 -110 -15 -10 -30 -22 -34 -27 -4 -6 -14 -3 -26 7 -24
22 -32 21 -33 0 -1 -17 -2 -17 -6 -1 -2 9 -13 20 -24 23 -10 4 -19 11 -19 16
0 5 -9 9 -20 9 -43 0 -68 118 -32 154 18 18 80 53 98 55 6 0 26 -4 44 -11z
m-295 -439 c63 -43 139 -122 124 -129 -8 -3 -16 -14 -17 -25 -2 -11 -9 -23
-14 -26 -6 -4 -7 -13 -3 -20 6 -9 3 -11 -9 -6 -13 5 -19 1 -23 -12 -5 -21 -19
-29 -73 -42 -27 -6 -45 -3 -91 19 -51 24 -59 32 -69 69 -15 53 -4 119 24 143
43 38 91 67 101 61 6 -3 28 -17 50 -32z m3262 4 c45 -51 77 -95 103 -138 13
-22 28 -41 32 -43 21 -9 -6 -228 -38 -307 -29 -72 -42 -89 -86 -112 -88 -46
-329 -67 -474 -42 -86 15 -145 54 -173 114 -50 107 -68 387 -28 448 9 14 42
35 79 49 65 26 205 55 215 44 4 -3 -2 -6 -13 -6 -22 0 -129 -59 -121 -66 3 -3
20 3 39 12 24 13 57 18 123 19 77 0 98 -4 145 -26 30 -15 73 -44 94 -65 41
-41 100 -156 112 -218 3 -20 9 -36 13 -36 9 0 41 82 41 105 0 70 -73 187 -148
239 -23 16 -70 37 -105 47 l-62 19 112 -3 111 -2 29 -32z m-310 21 c-3 -3 -12
-4 -19 -1 -8 3 -5 6 6 6 11 1 17 -2 13 -5z m-921 -64 c34 -17 65 -38 69 -48
14 -33 18 -223 5 -300 -12 -81 -39 -153 -68 -186 -9 -10 -42 -30 -72 -44 -49
-22 -71 -26 -205 -30 -112 -3 -169 0 -224 12 -88 19 -157 50 -177 81 -27 41
-55 159 -57 241 -2 75 0 82 27 115 15 18 39 40 52 47 l23 12 -19 -42 c-11 -24
-20 -57 -20 -74 0 -29 37 -130 45 -122 2 2 6 19 9 40 14 90 72 194 134 241 82
63 128 79 225 78 49 -1 95 -4 101 -7 6 -3 2 2 -9 11 -19 17 -17 17 39 11 33
-4 87 -20 122 -36z m-952 1 c12 -10 16 -34 16 -104 l0 -91 -29 28 c-89 86
-214 23 -215 -108 -1 -57 31 -143 47 -127 5 5 6 15 1 23 -11 16 -12 118 -1
118 4 0 7 6 7 14 0 7 7 19 15 26 19 16 19 10 -1 -39 -15 -39 -14 -52 12 -143
3 -10 -2 -18 -13 -21 -16 -4 -15 -6 4 -12 13 -4 20 -11 18 -16 -6 -9 71 -69
89 -69 6 0 17 -9 24 -20 7 -11 17 -20 22 -20 15 0 60 -42 55 -51 -11 -17 -83
-20 -113 -5 -55 28 -162 129 -162 152 0 9 -4 13 -8 10 -5 -3 -9 0 -10 7 -2 24
-8 47 -15 53 -4 4 -7 17 -7 28 0 12 -7 30 -15 40 -25 33 -20 151 9 211 41 88
119 139 203 132 28 -2 59 -9 67 -16z m2695 -5 c98 -51 142 -158 120 -295 -18
-116 -121 -266 -215 -317 -68 -36 -127 4 -78 54 10 10 14 10 14 1 0 -7 8 -3
18 8 9 11 31 27 48 36 17 9 56 39 87 67 45 42 58 61 67 102 32 132 -32 230
-141 215 -22 -3 -49 -13 -60 -23 -10 -9 -21 -15 -24 -12 -3 2 -5 40 -6 83 -1
66 2 81 17 93 23 16 111 9 153 -12z m1010 9 c17 -8 34 -28 40 -47 10 -28 9
-36 -7 -58 -22 -29 -79 -70 -98 -70 -7 0 -26 12 -43 26 -23 19 -31 34 -31 58
0 40 14 58 65 85 49 25 40 24 74 6z m-2328 -217 c33 -19 39 -27 45 -67 27
-197 83 -314 175 -361 85 -44 271 -65 404 -45 22 3 57 7 77 9 20 2 66 14 102
26 109 36 155 97 197 260 9 38 12 42 21 26 17 -30 3 -157 -22 -206 -12 -23
-17 -39 -11 -35 8 4 8 -1 2 -17 -5 -13 -19 -50 -32 -83 -13 -33 -25 -62 -28
-65 -12 -10 -51 -70 -51 -77 0 -11 -198 -211 -242 -245 -20 -16 -40 -28 -46
-28 -5 0 -15 -6 -21 -14 -6 -7 -32 -19 -56 -26 -25 -7 -48 -17 -51 -22 -3 -4
-10 -6 -15 -3 -5 4 -9 1 -9 -4 0 -6 -5 -11 -11 -11 -6 0 -25 -6 -42 -14 -18
-8 -63 -22 -102 -31 -38 -9 -86 -22 -105 -30 -115 -45 -539 -45 -603 0 -12 8
-31 15 -43 15 -33 0 -225 65 -301 103 -86 42 -212 135 -255 188 -18 23 -43 53
-55 66 -13 13 -23 28 -23 33 0 6 -4 10 -8 10 -12 0 -71 122 -89 183 -22 73
-41 238 -34 283 l7 39 12 -56 c18 -79 65 -173 98 -196 40 -28 93 -54 118 -58
210 -34 354 -36 480 -6 67 16 97 33 140 81 58 65 94 164 111 313 5 41 12 60
25 67 64 34 179 33 241 -2z m1317 20 c7 -7 12 -20 12 -30 0 -10 6 -18 13 -18
9 0 9 -2 0 -8 -8 -5 -9 -13 -3 -22 15 -23 11 -102 -6 -130 -14 -24 -15 -22 -9
37 6 60 -10 153 -25 153 -4 0 -10 7 -14 15 -7 18 15 20 32 3z m-3668 -117 c0
-19 -23 -35 -34 -24 -14 15 -5 43 14 43 13 0 20 -7 20 -19z m4785 -76 c0 -13
-8 -21 -22 -23 -17 -3 -23 2 -23 16 0 10 3 22 7 26 13 13 38 1 38 -19z m-3777
-286 c-2 -6 -8 -10 -13 -10 -5 0 -11 4 -13 10 -2 6 4 11 13 11 9 0 15 -5 13
-11z m2502 1 c0 -5 -7 -10 -15 -10 -8 0 -15 5 -15 10 0 6 7 10 15 10 8 0 15
-4 15 -10z m-2500 -64 c0 -22 -24 -38 -38 -24 -20 20 -14 38 13 38 15 0 25 -6
25 -14z m2494 8 c9 -3 16 -13 16 -21 0 -8 -4 -12 -9 -8 -5 3 -12 1 -16 -5 -4
-6 -12 -5 -21 5 -25 24 -5 43 30 29z m-2484 -144 c0 -11 -10 -20 -25 -22 -20
-4 -25 -1 -25 16 0 31 20 49 37 35 7 -7 13 -19 13 -29z m2490 -6 c0 -6 -6 -17
-14 -23 -12 -10 -15 -6 -21 18 -9 40 2 58 21 34 7 -10 14 -23 14 -29z m30 30
c0 -2 -7 -4 -15 -4 -8 0 -15 4 -15 10 0 5 7 7 15 4 8 -4 15 -8 15 -10z m-3766
0 c23 -9 20 -44 -3 -44 -23 0 -35 15 -27 35 6 17 8 17 30 9z m1173 -19 c-4 -8
-11 -15 -17 -15 -14 0 -13 27 3 33 16 6 21 1 14 -18z m120 10 c8 -22 -6 -33
-17 -15 -13 20 -12 30 0 30 6 0 13 -7 17 -15z m2818 -38 c15 -88 94 -315 190
-542 26 -60 60 -146 76 -190 16 -44 34 -89 39 -100 24 -52 69 -300 51 -278 -4
4 -13 37 -20 73 -14 77 -38 164 -56 205 -8 17 -24 57 -35 90 -12 33 -31 78
-41 100 -65 141 -99 217 -99 226 0 5 -9 28 -19 52 -25 53 -54 155 -81 277 -11
52 -23 106 -25 118 -4 14 -2 21 4 18 5 -3 12 -25 16 -49z m-461 28 c-4 -8 -8
-15 -10 -15 -2 0 -4 7 -4 15 0 8 4 15 10 15 5 0 7 -7 4 -15z m134 -6 c-2 -6
-8 -10 -13 -10 -5 0 -11 4 -13 10 -2 6 4 11 13 11 9 0 15 -5 13 -11z m-108
-19 c0 -5 -5 -10 -11 -10 -5 0 -7 5 -4 10 3 6 8 10 11 10 2 0 4 -4 4 -10z
m-2430 -61 c0 -12 -7 -19 -20 -19 -11 0 -20 -6 -20 -13 0 -7 9 -18 20 -25 11
-7 20 -16 20 -21 0 -17 -32 -21 -48 -5 -13 13 -14 22 -5 45 6 16 9 37 6 48 -4
15 0 18 21 14 17 -4 26 -12 26 -24z m40 22 c0 -6 -4 -13 -10 -16 -5 -3 -10 1
-10 9 0 9 5 16 10 16 6 0 10 -4 10 -9z m2438 -13 c-2 -12 -8 -23 -14 -25 -17
-6 -27 29 -12 39 22 13 30 9 26 -14z m55 16 c8 -8 -3 -34 -14 -34 -5 0 -9 9
-9 20 0 19 11 26 23 14z m-2618 -24 c3 -5 1 -10 -4 -10 -6 0 -11 5 -11 10 0 6
2 10 4 10 3 0 8 -4 11 -10z m125 -61 c0 -6 -4 -7 -10 -4 -5 3 -10 11 -10 16 0
6 5 7 10 4 6 -3 10 -11 10 -16z m2390 11 c0 -5 -10 -10 -22 -10 -19 0 -20 2
-8 10 19 13 30 13 30 0z m90 -21 c0 -5 -4 -9 -10 -9 -5 0 -10 7 -10 16 0 8 5
12 10 9 6 -3 10 -10 10 -16z m30 0 c0 -6 -4 -7 -10 -4 -5 3 -10 11 -10 16 0 6
5 7 10 4 6 -3 10 -11 10 -16z m-70 -3 c0 -15 -24 -28 -34 -19 -13 14 -5 33 14
33 11 0 20 -6 20 -14z m-3655 -6 c5 -8 11 -7 21 1 11 9 15 8 20 -5 4 -9 4 -20
0 -23 -3 -3 2 -12 12 -19 14 -11 15 -15 3 -23 -7 -5 -10 -14 -6 -21 11 -18
-24 -51 -44 -41 -9 6 -23 6 -33 0 -10 -6 -19 -5 -23 1 -3 5 -16 10 -28 10 -20
0 -20 1 -5 17 16 15 16 17 0 29 -16 12 -16 14 3 29 14 11 16 18 8 21 -24 10
-14 26 11 20 14 -3 28 -2 31 4 8 13 22 13 30 0z m686 -81 c-41 -106 -63 -155
-131 -304 -90 -197 -132 -304 -156 -395 -18 -69 -24 -232 -12 -310 6 -39 6
-42 -4 -20 -8 15 -12 79 -12 165 0 149 10 206 71 380 29 85 241 520 249 512 3
-2 1 -15 -5 -28z m4224 11 c4 -6 15 -8 26 -5 11 4 19 2 19 -4 0 -6 -5 -11 -11
-11 -5 0 -7 -5 -4 -10 4 -6 11 -8 16 -5 5 4 9 -1 9 -10 0 -8 -11 -20 -24 -25
-13 -5 -26 -14 -28 -21 -2 -7 -14 -13 -25 -14 -18 -1 -20 2 -12 22 13 35 11
50 -4 28 -10 -13 -16 -15 -21 -6 -4 6 -3 18 3 25 6 7 7 16 3 21 -4 4 5 5 21 1
17 -4 27 -2 27 4 0 6 -4 8 -10 5 -5 -3 -10 -1 -10 4 0 14 17 14 25 1z m-3761
-24 c7 17 9 17 21 -6 17 -29 20 -106 5 -115 -5 -3 -15 6 -22 20 l-12 26 -14
-28 -15 -28 -10 23 c-7 15 -6 40 3 79 12 53 13 55 25 34 11 -22 12 -22 19 -5z
m2426 -55 c-10 -39 -23 -51 -34 -32 -5 8 0 25 29 96 8 19 9 19 12 -2 2 -12 -1
-40 -7 -62z m-2495 0 c-9 -28 -21 -51 -26 -51 -12 0 -12 8 7 69 11 37 19 50
26 43 7 -7 5 -26 -7 -61z m2548 57 c3 -10 7 -10 20 0 14 12 17 8 27 -29 6 -23
9 -52 6 -65 -7 -26 -36 -33 -36 -9 0 8 -4 15 -10 15 -5 0 -10 -7 -10 -15 0
-18 -26 -20 -33 -2 -5 12 -2 42 9 95 5 24 20 30 27 10z m97 -54 c5 -21 5 -45
0 -53 -7 -13 -11 -10 -20 14 -7 17 -14 48 -17 70 -5 37 -4 39 12 24 9 -9 20
-33 25 -55z m-2502 31 c7 -14 12 -40 12 -58 0 -28 -1 -30 -16 -16 -18 19 -32
99 -17 99 5 0 15 -11 21 -25z m3819 9 c7 -20 -11 -38 -31 -31 -9 4 -12 13 -9
26 6 25 31 28 40 5z m-105 -66 c-7 -7 -12 -8 -12 -2 0 14 12 26 19 19 2 -3 -1
-11 -7 -17z m-854 -183 c32 -109 60 -234 67 -300 3 -33 9 -73 12 -90 9 -50 -8
-20 -22 37 -7 29 -32 121 -55 203 -46 165 -63 275 -38 240 8 -11 24 -51 36
-90z m746 69 c8 -21 -11 -45 -30 -37 -14 5 -19 34 -7 46 12 12 31 7 37 -9z
m303 -46 c-3 -7 -5 -2 -5 12 0 14 2 19 5 13 2 -7 2 -19 0 -25z m-5419 -76 c3
-18 -1 -22 -22 -22 -19 0 -26 5 -26 18 0 39 43 43 48 4z m4958 -19 c-3 -8 -6
-17 -6 -19 0 -2 -4 -4 -9 -4 -11 0 -23 29 -16 40 9 15 37 -1 31 -17z m-2647
-68 c22 4 29 -11 9 -18 -7 -2 -5 -3 5 -2 19 3 24 -21 5 -28 -7 -3 -1 -5 14 -4
16 1 24 5 20 12 -11 17 -10 66 1 62 25 -8 156 -255 157 -294 0 -24 -29 -1 -35
27 -9 41 -31 57 -40 30 -4 -12 -2 -27 5 -35 9 -10 6 -15 -11 -20 -26 -9 -31
-3 -90 97 -49 84 -76 147 -84 195 l-6 38 15 -32 c11 -24 20 -31 35 -28z m3111
46 c0 -6 -4 -12 -8 -15 -5 -3 -9 1 -9 9 0 8 4 15 9 15 4 0 8 -4 8 -9z m-2359
-31 c13 0 19 -7 19 -22 l0 -23 21 25 21 25 -6 -40 c-3 -22 -29 -87 -58 -143
-49 -97 -79 -134 -92 -114 -6 10 -57 9 -74 -2 -19 -12 -14 33 11 89 39 87 132
240 135 222 2 -9 12 -17 23 -17z m-833 -19 c12 -6 40 -47 61 -90 22 -43 53
-101 70 -129 l30 -52 -217 0 c-216 0 -267 4 -256 21 3 5 -2 23 -10 41 -20 42
-35 113 -36 159 0 33 4 39 38 53 29 13 64 16 167 13 76 -2 139 -8 153 -16z
m272 -6 c30 -9 82 -28 115 -40 67 -26 90 -25 180 13 44 18 138 42 165 42 17 0
11 -14 -34 -83 -25 -38 -54 -96 -66 -131 l-21 -64 -139 2 c-157 1 -141 -7
-180 94 -11 29 -38 81 -60 115 -42 65 -48 79 -27 72 6 -2 37 -11 67 -20z m965
5 c23 -11 31 -23 33 -47 4 -37 -36 -205 -51 -214 -14 -9 -427 -10 -427 -1 0 4
6 17 14 28 23 33 93 177 100 207 4 15 17 32 29 37 37 15 267 7 302 -10z m1941
-68 c-3 -5 -15 -8 -28 -6 -13 1 -52 4 -88 5 -63 3 -62 3 25 8 98 7 100 6 91
-7z m-1767 -72 c41 -38 77 -70 80 -70 3 0 11 -11 17 -24 14 -30 4 -34 -113
-35 -95 -2 -90 -9 -85 115 2 57 7 84 15 84 7 0 46 -31 86 -70z m-1817 28 c1
-18 3 -52 4 -76 1 -23 4 -49 8 -57 6 -16 0 -17 -114 -20 -46 -1 -123 12 -82
14 7 1 11 5 8 10 -6 9 150 161 165 161 5 0 10 -15 11 -32z m3478 12 c0 -5 -16
-10 -35 -10 -19 0 -35 5 -35 10 0 6 16 10 35 10 19 0 35 -4 35 -10z m117 -5
c0 -8 -6 -16 -13 -19 -10 -4 -12 8 -5 32 3 9 18 -1 18 -13z m-134 -30 c-3 -9
-8 -14 -10 -11 -3 3 -2 9 2 15 9 16 15 13 8 -4z m97 5 c0 -5 -9 -10 -20 -10
-11 0 -20 5 -20 10 0 6 9 10 20 10 11 0 20 -4 20 -10z m-1407 -191 c57 -26 58
-45 22 -344 -14 -115 -34 -286 -45 -380 -12 -93 -22 -181 -25 -195 -2 -14 -11
-94 -21 -178 -15 -135 -20 -154 -38 -165 -34 -18 -2320 -17 -2363 2 -18 7 -33
19 -33 25 0 6 -7 67 -15 136 -8 69 -17 150 -20 180 -3 30 -13 107 -21 170 -9
63 -17 129 -19 145 -3 17 -11 82 -20 145 -28 208 -35 274 -36 343 -1 62 2 72
27 98 l28 29 1277 0 c887 0 1285 -3 1302 -11z m714 -201 c-3 -8 -6 -5 -6 6 -1
11 2 17 5 13 3 -3 4 -12 1 -19z m-3382 -210 c21 -9 36 -38 20 -38 -16 0 -55
26 -55 37 0 16 2 16 35 1z m2815 -6 c0 -11 -74 -36 -90 -30 -9 3 -8 9 4 21 18
17 86 24 86 9z m-2819 -59 c24 -15 53 -51 32 -41 -53 25 -83 43 -83 50 0 13
20 9 51 -9z m2849 7 c12 -8 11 -10 -6 -10 -12 0 -45 -15 -73 -34 -52 -35 -68
-33 -30 5 18 18 73 48 89 48 3 1 12 -4 20 -9z m-50 -130 c0 -5 6 -10 13 -10
26 -1 87 -173 87 -246 0 -38 -5 -49 -39 -80 -34 -32 -171 -102 -171 -87 0 3
-6 0 -14 -6 -16 -14 -16 -21 4 183 6 55 12 101 14 103 2 2 25 -10 50 -28 47
-31 70 -33 46 -4 -7 8 -30 25 -51 37 -22 12 -39 27 -39 34 0 20 20 67 26 61 8
-8 44 25 38 35 -3 4 3 5 12 1 12 -4 15 -3 10 5 -4 7 -2 12 3 12 6 0 11 -4 11
-10z m-2750 -53 c15 -70 13 -77 -24 -92 -18 -8 -41 -26 -50 -40 -21 -33 -16
-32 39 7 24 17 47 29 50 27 7 -8 25 -180 24 -239 -1 -30 -3 -47 -6 -38 -2 10
-18 20 -39 24 -19 3 -34 9 -34 13 0 3 -14 12 -32 20 -70 31 -98 74 -98 151 0
49 17 96 48 128 6 7 12 18 12 24 0 5 9 22 20 38 14 20 27 27 49 26 28 -1 31
-5 41 -49z m3590 -252 c14 -19 14 -19 -2 -6 -10 7 -18 18 -18 24 0 6 1 8 3 6
1 -2 9 -13 17 -24z m-280 -74 c179 -28 470 -21 583 13 61 18 52 2 -11 -18
-167 -54 -561 -43 -685 21 -15 7 -25 18 -22 23 3 5 20 0 38 -10 18 -10 61 -23
97 -29z m-170 -25 c0 -3 -28 -18 -63 -35 -66 -31 -124 -81 -95 -81 9 0 21 7
28 15 14 17 40 20 40 5 0 -5 11 2 25 15 13 14 31 25 40 25 23 0 18 -9 -11 -21
-36 -13 -22 -24 26 -20 25 1 40 -2 40 -9 0 -6 -3 -9 -7 -7 -5 3 -17 1 -28 -4
-16 -6 -13 -8 15 -8 35 -1 96 -32 84 -43 -3 -3 8 -9 25 -13 17 -4 31 -11 31
-16 0 -6 14 -15 31 -21 23 -8 28 -13 17 -20 -8 -5 -3 -6 15 -2 15 3 27 2 27
-4 0 -5 15 -12 33 -14 17 -3 41 -9 51 -13 15 -7 17 -5 11 6 -7 12 -6 12 7 1 8
-7 22 -10 30 -7 8 3 21 -1 28 -10 18 -21 33 -19 25 5 -4 11 -2 20 4 20 6 0 11
-5 11 -11 0 -6 9 -8 20 -4 11 4 20 2 20 -4 0 -6 5 -11 11 -11 6 0 9 7 5 15 -6
18 5 20 22 3 8 -8 15 -8 26 1 10 8 16 9 21 1 3 -5 16 -10 28 -9 21 0 21 1 2 9
-14 6 -16 9 -5 10 8 2 20 1 25 0 6 -2 22 -4 36 -5 15 -2 37 -6 50 -10 22 -7
23 -7 9 10 -14 17 -13 18 9 12 14 -3 30 -2 35 2 6 5 27 10 47 13 33 3 37 1 37
-19 0 -25 -3 -26 -63 -23 l-40 1 40 -22 c22 -12 43 -27 47 -33 15 -23 7 -27
-19 -9 -67 45 -76 47 -140 24 -33 -12 -67 -21 -76 -21 -24 0 -160 -64 -176
-83 -18 -22 -40 -21 -65 2 -12 11 -42 31 -68 45 l-48 26 -6 -25 c-3 -14 -11
-24 -17 -22 -18 6 -19 24 -3 40 14 13 14 16 1 27 -11 9 -15 9 -15 1 0 -17 -29
-13 -58 8 -40 28 -44 28 -53 3 -5 -13 -13 -20 -19 -17 -6 4 -7 11 -4 17 4 7
-2 8 -17 3 -35 -10 -121 -41 -140 -49 -11 -5 -19 -1 -23 9 -4 12 5 21 37 35
23 11 50 20 59 20 9 0 20 5 23 10 3 6 16 11 28 11 15 1 17 3 6 6 -9 2 -49 -7
-90 -22 -40 -14 -73 -25 -74 -25 -1 0 -3 33 -4 73 -1 74 3 89 29 100 8 4 -3 5
-25 2 -22 -3 -48 -5 -57 -6 -24 0 -58 -51 -72 -107 -8 -30 -19 -48 -29 -50
-55 -11 29 179 107 239 50 39 186 86 186 65z m-3578 -55 c-7 -4 -57 -16 -111
-26 -77 -14 -129 -17 -242 -13 -233 9 -213 23 34 24 163 1 235 5 272 16 49 15
71 14 47 -1z m258 -13 c52 -11 101 -25 108 -30 33 -28 2 -64 -83 -98 -78 -31
-103 -47 -111 -73 -4 -12 -12 -25 -18 -29 -8 -6 -7 -8 2 -8 6 0 12 -9 12 -20
0 -26 29 -40 82 -40 l43 0 -43 -20 c-23 -11 -55 -21 -70 -22 -15 -2 -33 -9
-40 -16 -8 -7 -18 -10 -23 -7 -5 4 -9 2 -9 -3 0 -10 -55 -26 -77 -23 -7 1 -13
-2 -13 -7 0 -5 -10 -12 -22 -15 -13 -3 -75 -23 -138 -46 -63 -22 -119 -36
-123 -32 -18 18 8 38 75 59 67 21 207 74 291 109 20 9 37 20 37 26 0 5 -6 7
-12 4 -7 -3 -38 -15 -68 -28 -30 -12 -78 -32 -107 -45 -28 -13 -58 -24 -66
-24 -7 0 -17 -3 -21 -7 -7 -7 -114 -43 -128 -43 -15 0 -8 29 10 39 15 9 15 10
1 11 -14 0 -17 12 -18 64 l-1 63 238 77 c130 43 266 89 302 102 36 13 71 24
78 24 6 0 12 7 12 16 0 13 -6 15 -27 9 -16 -4 -35 -8 -43 -9 -8 0 -17 -3 -20
-6 -8 -9 -243 -80 -262 -80 -29 0 -20 17 12 24 31 6 43 36 14 36 -9 0 -13 6
-10 13 2 6 10 29 17 50 l13 39 55 -7 c31 -4 99 -16 151 -27z m-1125 -118 c109
-17 195 -30 225 -35 136 -23 229 -36 248 -36 12 1 22 -3 22 -8 0 -5 12 -12 26
-15 54 -14 16 -13 -56 1 -41 8 -89 14 -107 13 -28 0 -81 8 -238 40 -27 6 -84
15 -125 20 -210 28 -235 33 -225 50 2 4 37 2 77 -5 40 -7 109 -18 153 -25z
m4301 24 c-3 -9 -6 -37 -7 -62 -1 -37 -2 -42 -8 -22 -10 32 -2 100 11 100 6 0
7 -7 4 -16z m930 -31 c-7 -7 -26 7 -26 19 0 6 6 6 15 -2 9 -7 13 -15 11 -17z
m51 -15 c-3 -7 -5 -2 -5 12 0 14 2 19 5 13 2 -7 2 -19 0 -25z m-1017 7 c0 -8
-4 -15 -9 -15 -13 0 -22 16 -14 24 11 11 23 6 23 -9z m-4265 -45 c28 -5 73
-14 100 -20 28 -6 76 -12 108 -15 32 -3 115 -16 185 -31 70 -14 135 -27 145
-27 9 -1 17 -6 17 -12 0 -13 -58 -7 -178 19 -40 9 -85 16 -98 16 -14 0 -23 3
-21 8 3 4 -14 7 -36 8 -23 1 -91 10 -152 22 -157 29 -239 42 -268 42 -13 0
-27 6 -30 13 -5 12 83 4 228 -23z m725 0 c-14 -5 -42 -11 -63 -15 -21 -3 -35
-10 -32 -16 4 -5 0 -9 -8 -9 -7 0 -14 7 -14 15 0 9 15 16 46 20 25 4 51 8 56
10 6 2 17 3 25 3 8 0 4 -3 -10 -8z m3540 0 c0 -5 -2 -10 -4 -10 -3 0 -8 5 -11
10 -3 6 -1 10 4 10 6 0 11 -4 11 -10z m1093 -7 c-3 -7 -9 -10 -14 -7 -14 8
-11 21 5 21 8 0 12 -6 9 -14z m-4203 -3 c0 -5 -5 -10 -11 -10 -5 0 -7 5 -4 10
3 6 8 10 11 10 2 0 4 -4 4 -10z m4231 -4 c-6 -7 -8 -27 -5 -45 4 -20 3 -31 -5
-31 -6 0 -10 6 -8 12 1 7 -13 20 -30 28 -18 8 -33 21 -33 28 0 16 5 15 25 -4
15 -16 18 -15 38 5 24 23 36 29 18 7z m-5446 -26 c45 -7 173 -31 395 -74 41
-8 108 -20 148 -26 60 -10 72 -15 72 -31 0 -10 -2 -19 -5 -19 -13 0 -198 32
-260 46 -38 8 -108 21 -155 29 -373 62 -360 59 -360 78 0 15 7 16 58 11 31 -3
80 -10 107 -14z m4335 -6 c0 -8 -5 -12 -10 -9 -6 4 -8 11 -5 16 9 14 15 11 15
-7z m-3693 0 c-3 -3 -12 -4 -19 -1 -8 3 -5 6 6 6 11 1 17 -2 13 -5z m2066 -4
c863 0 1178 -3 1170 -11 -13 -13 -2350 -18 -2371 -5 -18 11 -15 29 4 22 8 -3
547 -6 1197 -6z m2522 -30 c-4 -13 -2 -20 6 -20 7 0 9 -3 6 -6 -9 -9 -37 15
-37 32 0 8 7 14 16 14 11 0 14 -6 9 -20z m148 13 c-7 -2 -19 -2 -25 0 -7 3 -2
5 12 5 14 0 19 -2 13 -5z m-1098 -13 c3 -5 1 -10 -4 -10 -6 0 -11 5 -11 10 0
6 2 10 4 10 3 0 8 -4 11 -10z m283 -28 c6 -20 -22 -13 -35 8 -12 17 -11 18 9
11 12 -4 24 -13 26 -19z m72 18 c0 -15 -26 -23 -41 -14 -9 5 -7 10 7 15 27 11
34 10 34 -1z m-4700 -15 c25 -3 104 -17 175 -30 189 -34 308 -55 409 -70 86
-13 118 -27 102 -42 -4 -4 -91 9 -194 30 -103 20 -203 39 -222 42 -19 3 -71
15 -115 25 -44 11 -113 24 -154 30 -40 6 -81 15 -90 21 -12 8 -9 9 14 5 17 -3
50 -8 75 -11z m4430 -20 c0 -5 -5 -3 -10 5 -5 8 -10 20 -10 25 0 6 5 3 10 -5
5 -8 10 -19 10 -25z m-3100 0 c0 -14 0 -28 1 -32 0 -4 -4 -9 -10 -11 -7 -2 -9
7 -5 26 6 28 3 31 -22 35 -28 4 -28 4 4 6 28 1 32 -2 32 -24z m2600 6 c0 -10
-6 -23 -12 -29 -10 -7 -575 -16 -790 -12 -10 1 -33 1 -50 2 -18 0 -82 0 -143
-1 -60 -1 -339 -1 -620 -1 -375 1 -513 4 -524 13 -12 10 -13 9 -6 -2 6 -11 4
-13 -11 -6 -24 10 -43 11 -74 1 -19 -5 -21 -5 -10 3 12 9 11 11 -7 11 -12 0
-33 -4 -47 -10 -21 -8 -24 -7 -19 8 6 14 4 15 -9 4 -13 -10 -17 -10 -22 3 -3
8 0 15 7 16 7 0 3 4 -8 9 -11 4 512 9 1163 9 1155 1 1182 1 1182 -18z m580
-11 c-6 -11 -13 -20 -16 -20 -2 0 0 9 6 20 6 11 13 20 16 20 2 0 0 -9 -6 -20z
m66 -7 c-7 -7 -26 7 -26 19 0 6 6 6 15 -2 9 -7 13 -15 11 -17z m174 17 c0 -5
-4 -10 -10 -10 -5 0 -10 5 -10 10 0 6 5 10 10 10 6 0 10 -4 10 -10z m610 -9
c0 -10 -9 -21 -20 -24 -15 -4 -20 0 -20 13 0 17 12 27 33 29 4 1 7 -7 7 -18z
m94 -20 c-3 -3 -15 6 -27 18 l-22 24 27 -19 c14 -10 24 -21 22 -23z m-265 13
c-6 -8 -17 -14 -24 -14 -7 0 -18 6 -24 14 -10 12 -6 14 24 14 30 0 34 -2 24
-14z m51 -16 c0 -19 -2 -20 -10 -8 -13 19 -13 30 0 30 6 0 10 -10 10 -22z
m-5217 -8 c43 -5 83 -12 88 -15 9 -6 37 -11 214 -41 76 -12 176 -31 328 -60
15 -3 27 -11 27 -19 0 -22 -70 -13 -325 40 -38 7 -208 39 -342 63 -56 10 -105
21 -109 24 -11 12 7 29 25 23 9 -3 52 -9 94 -15z m4657 5 c0 -8 -7 -15 -15
-15 -16 0 -20 12 -8 23 11 12 23 8 23 -8z m413 8 c8 -7 -11 -33 -24 -33 -4 0
-7 9 -6 20 1 20 17 27 30 13z m-235 -14 c-2 -6 -8 -10 -13 -10 -5 0 -11 4 -13
10 -2 6 4 11 13 11 9 0 15 -5 13 -11z m322 -9 c0 -5 -4 -10 -10 -10 -5 0 -10
5 -10 10 0 6 5 10 10 10 6 0 10 -4 10 -10z m-4792 -827 c51 -121 73 -184 67
-193 -11 -18 -35 -10 -47 15 -9 21 -18 25 -53 25 -35 0 -44 -4 -53 -25 -11
-24 -31 -32 -45 -19 -11 12 85 244 101 244 5 0 19 -21 30 -47z m203 37 c10 -6
19 -19 19 -29 0 -21 -26 -36 -35 -21 -4 6 -15 10 -26 10 -25 0 -26 -37 0 -45
68 -21 90 -81 48 -131 -36 -42 -107 -31 -107 17 0 17 5 18 40 13 36 -6 40 -4
40 14 0 14 -11 27 -29 37 -34 17 -61 51 -61 78 0 25 44 67 70 67 12 0 30 -5
41 -10z m184 -10 c14 -16 16 -23 7 -32 -10 -10 -17 -10 -31 -1 -15 9 -23 9
-36 -1 -23 -16 -14 -31 34 -56 56 -28 67 -68 30 -114 -14 -18 -30 -26 -53 -26
-41 0 -71 21 -63 44 5 13 15 15 47 10 36 -6 40 -4 40 14 0 14 -14 28 -42 44
-37 20 -43 28 -46 60 -6 67 70 105 113 58z m207 -5 c77 -71 42 -226 -51 -225
-60 1 -101 49 -101 118 0 108 86 168 152 107z m216 9 c12 -8 22 -22 22 -30 0
-19 -28 -30 -43 -15 -31 31 -77 -8 -77 -67 0 -22 8 -41 25 -58 24 -24 26 -24
50 -8 30 20 51 8 41 -24 -9 -26 -59 -44 -90 -32 -30 11 -63 53 -71 91 -23 103
69 195 143 143z m97 -110 c0 -112 -1 -119 -20 -119 -19 0 -20 7 -21 102 0 107
8 147 28 141 10 -4 13 -37 13 -124z m192 10 c24 -60 41 -115 38 -121 -8 -21
-31 -15 -43 12 -10 21 -19 25 -52 25 -33 0 -42 -4 -52 -25 -12 -27 -35 -33
-44 -12 -5 15 37 139 68 200 10 21 24 37 31 34 6 -2 31 -53 54 -113z m182 107
c20 -13 7 -39 -21 -43 -22 -3 -23 -7 -26 -96 -2 -73 -6 -94 -18 -99 -25 -9
-34 16 -34 103 0 79 -1 82 -25 88 -24 6 -34 34 -18 49 10 10 126 8 142 -2z
m166 -1 c23 -9 25 -13 15 -25 -7 -9 -29 -15 -51 -15 -36 0 -39 -2 -39 -29 0
-27 3 -30 38 -33 25 -2 37 -8 37 -18 0 -10 -12 -16 -37 -18 -33 -3 -38 -7 -38
-28 0 -16 6 -24 18 -25 49 -4 64 -7 74 -17 21 -21 -4 -32 -73 -32 l-69 0 0
113 c0 75 4 117 12 125 15 15 77 16 113 2z m260 -4 c11 -8 16 -19 12 -30 -7
-18 -32 -22 -42 -6 -8 14 -45 -6 -45 -24 0 -8 18 -21 40 -30 54 -22 69 -54 47
-101 -21 -44 -58 -60 -95 -42 -16 7 -27 20 -27 32 0 17 7 20 40 20 32 0 40 4
40 18 0 10 -17 27 -40 40 -32 18 -41 29 -43 56 -6 62 63 104 113 67z m211 -20
c30 -30 34 -40 34 -87 0 -98 -56 -153 -125 -125 -102 43 -79 244 29 246 19 0
39 -11 62 -34z m216 16 c18 -18 -2 -32 -48 -32 -37 0 -44 -3 -44 -20 0 -11 0
-23 0 -27 -1 -5 16 -10 37 -13 53 -7 51 -33 -2 -40 -40 -5 -40 -5 -45 -55 -4
-36 -9 -50 -20 -50 -12 0 -16 21 -18 114 -2 67 2 118 8 125 12 15 117 13 132
-2z m184 4 c22 -17 12 -33 -26 -38 -24 -3 -25 -6 -28 -92 -3 -95 -14 -125 -38
-105 -10 8 -14 37 -14 99 l0 88 -31 6 c-37 7 -37 37 1 47 44 12 116 9 136 -5z
m73 -17 c6 -18 11 -40 11 -50 0 -40 20 -26 35 27 10 33 21 54 28 51 7 -2 22
-30 33 -62 23 -63 22 -64 44 23 7 26 17 42 26 42 32 0 29 -24 -17 -182 -23
-80 -43 -88 -59 -25 -19 74 -21 74 -43 14 -14 -38 -26 -57 -36 -55 -16 3 -73
203 -65 231 8 27 31 20 43 -14z m320 -16 c32 -65 61 -151 61 -180 0 -31 -28
-30 -40 2 -8 21 -16 25 -47 25 -32 0 -41 -5 -55 -31 -18 -31 -38 -31 -38 0 0
20 52 177 69 210 17 31 24 27 50 -26z m206 32 c48 -19 60 -53 38 -106 -15 -38
-15 -43 0 -69 23 -38 21 -60 -3 -60 -14 0 -27 14 -42 45 -26 52 -48 59 -48 14
0 -40 -16 -70 -35 -63 -12 5 -15 28 -15 120 0 97 2 114 18 123 24 14 47 13 87
-4z m512 1 c16 -15 -10 -35 -49 -38 -38 -3 -43 -6 -43 -28 0 -22 5 -25 38 -28
30 -3 37 -7 35 -20 -2 -12 -15 -18 -41 -20 -35 -3 -38 -6 -35 -30 3 -24 8 -27
53 -32 36 -4 50 -9 50 -20 0 -21 -66 -36 -112 -24 l-38 9 -3 95 c-3 110 1 137
26 143 21 6 112 0 119 -7z m125 -58 l53 -72 3 61 c2 39 8 66 18 74 28 23 35
-4 32 -122 -4 -143 -15 -151 -83 -57 -47 63 -68 82 -64 57 1 -8 1 -38 0 -66
-1 -46 -4 -53 -21 -53 -19 0 -20 7 -20 113 0 75 4 117 12 125 7 7 13 12 14 12
1 0 26 -32 56 -72z m289 62 c10 -6 19 -20 19 -31 0 -18 -4 -20 -38 -14 -49 8
-74 -17 -76 -74 -1 -49 27 -83 63 -79 35 4 43 45 9 50 -15 2 -24 11 -26 26 -3
20 1 22 41 22 29 0 47 -5 50 -14 10 -26 -3 -91 -23 -110 -40 -40 -129 -15
-151 42 -16 40 -6 128 17 153 33 36 79 48 115 29z m124 -115 c0 -113 -1 -120
-20 -120 -18 0 -20 8 -23 90 -4 115 3 157 26 153 15 -3 17 -18 17 -123z m140
44 l50 -74 3 67 c2 44 8 70 18 79 27 22 34 -8 32 -126 -4 -138 -15 -146 -83
-53 -26 35 -51 64 -56 66 -5 2 -9 -25 -9 -61 0 -48 -4 -66 -15 -70 -8 -4 -18
-1 -22 6 -8 13 -5 226 3 239 11 18 30 0 79 -73z m290 51 c0 -11 -13 -16 -47
-18 -43 -3 -48 -6 -48 -26 0 -26 17 -36 57 -36 18 0 24 -5 21 -17 -2 -13 -14
-19 -41 -21 -35 -3 -38 -6 -35 -30 3 -25 7 -27 51 -30 38 -3 47 -7 47 -21 0
-20 -26 -31 -78 -31 -67 0 -72 9 -72 125 0 73 4 107 13 117 20 19 132 9 132
-12z m185 8 c0 -5 0 -12 0 -18 0 -5 -20 -10 -45 -10 -25 0 -46 -4 -46 -10 -6
-43 -4 -45 39 -48 34 -3 43 -7 40 -20 -2 -12 -15 -18 -41 -20 -35 -3 -38 -6
-35 -30 3 -25 7 -27 51 -30 39 -3 48 -6 45 -20 -3 -14 -15 -17 -73 -17 l-70 0
0 115 0 115 40 5 c44 6 96 -1 95 -12z m155 7 c54 -22 68 -81 29 -120 -14 -13
-13 -19 7 -55 17 -30 20 -43 12 -51 -18 -18 -40 -3 -63 41 -23 44 -40 52 -40
18 0 -42 -12 -68 -30 -68 -25 0 -30 19 -30 125 0 72 4 97 16 109 19 20 54 20
99 1z m-1580 -15 c0 -11 -13 -16 -47 -18 -46 -3 -48 -5 -48 -33 0 -27 2 -29
41 -29 33 0 40 -3 37 -17 -2 -13 -14 -19 -41 -21 -34 -3 -37 -6 -37 -33 0 -28
1 -29 50 -29 42 0 50 -3 50 -19 0 -23 -19 -31 -71 -31 -75 0 -79 7 -79 129 0
59 3 111 7 115 4 4 37 6 73 4 50 -2 65 -6 65 -18z"/>
<path d="M6164 3394 c-2 -20 0 -21 12 -9 17 17 17 22 2 28 -8 3 -14 -5 -14
-19z"/>
<path d="M6071 3384 c0 -11 3 -14 6 -6 3 7 2 16 -1 19 -3 4 -6 -2 -5 -13z"/>
<path d="M6173 3355 c-3 -9 -3 -18 -1 -21 3 -3 8 4 11 16 6 23 -1 27 -10 5z"/>
<path d="M6215 3340 c-3 -5 -1 -10 4 -10 6 0 11 5 11 10 0 6 -2 10 -4 10 -3 0
-8 -4 -11 -10z"/>
<path d="M6404 3324 c-18 -14 -18 -14 6 -3 31 14 36 19 24 19 -6 0 -19 -7 -30
-16z"/>
<path d="M6091 3305 c0 -11 4 -29 9 -40 l9 -20 0 20 c0 11 -4 29 -9 40 l-9 20
0 -20z"/>
<path d="M6120 3299 c0 -5 5 -7 10 -4 6 3 10 8 10 11 0 2 -4 4 -10 4 -5 0 -10
-5 -10 -11z"/>
<path d="M6229 3036 c13 -16 51 -41 51 -33 0 2 -15 14 -32 27 -21 15 -28 17
-19 6z"/>
<path d="M3520 5950 c0 -5 5 -10 10 -10 6 0 10 5 10 10 0 6 -4 10 -10 10 -5 0
-10 -4 -10 -10z"/>
<path d="M3748 5388 c-27 -36 -48 -72 -48 -84 0 -4 14 14 31 39 17 26 34 47
37 47 4 0 22 -23 41 -51 41 -59 54 -58 18 3 -50 85 -50 84 -79 46z"/>
<path d="M3746 5313 c-17 -35 -22 -70 -5 -40 5 9 19 17 31 17 16 0 19 -5 15
-21 -4 -16 -3 -18 9 -8 19 16 18 23 -10 55 l-23 28 -17 -31z"/>
<path d="M4226 4899 c-14 -11 -38 -42 -53 -67 -25 -42 -28 -57 -28 -139 0 -50
3 -95 8 -99 4 -4 33 1 64 10 32 10 95 21 142 24 l83 5 -4 76 c-5 87 -29 144
-78 185 -40 33 -96 35 -134 5z"/>
<path d="M3180 4894 c-48 -41 -71 -97 -77 -186 l-6 -78 44 0 c57 0 160 -17
210 -34 37 -13 39 -13 44 8 16 66 4 171 -26 231 -41 83 -128 110 -189 59z"/>
<path d="M5081 4521 c-10 -7 -11 -13 -2 -30 14 -26 37 -27 50 -3 16 31 -16 53
-48 33z"/>
<path d="M3680 4514 c0 -20 47 -55 81 -60 36 -6 79 18 98 55 9 16 2 17 -85 17
-61 0 -94 -4 -94 -12z"/>
<path d="M3940 4354 c-83 -14 -227 -14 -415 2 -69 6 -71 5 -100 -26 -37 -39
-39 -94 -6 -158 68 -133 227 -213 399 -200 141 11 245 77 302 191 42 85 38
148 -13 181 -35 23 -73 25 -167 10z m120 -44 c0 -13 -34 -37 -76 -53 -139 -54
-412 -37 -486 30 -10 9 -18 20 -18 24 0 5 96 6 213 3 116 -3 239 -2 272 3 61
9 95 7 95 -7z m-430 -144 c-23 -9 -30 -15 -20 -18 9 -4 7 -6 -7 -5 -12 1 -19
5 -16 10 6 11 43 26 63 26 8 0 -1 -6 -20 -13z m-70 -57 c-13 -8 -13 -10 0 -19
9 -6 10 -10 3 -10 -19 0 -26 20 -12 36 6 8 14 12 18 9 3 -3 -1 -10 -9 -16z
m314 -37 c27 -9 51 -22 53 -28 6 -17 -86 -33 -177 -30 -85 3 -150 22 -166 47
-6 12 -5 12 9 0 14 -11 23 -10 59 8 53 26 151 28 222 3z m133 12 c-3 -3 -12
-4 -19 -1 -8 3 -5 6 6 6 11 1 17 -2 13 -5z"/>
<path d="M1355 4010 c-3 -5 -1 -10 4 -10 6 0 11 5 11 10 0 6 -2 10 -4 10 -3 0
-8 -4 -11 -10z"/>
<path d="M1320 3980 c0 -5 5 -10 10 -10 6 0 10 5 10 10 0 6 -4 10 -10 10 -5 0
-10 -4 -10 -10z"/>
<path d="M1355 3960 c-3 -5 -1 -10 4 -10 6 0 11 5 11 10 0 6 -2 10 -4 10 -3 0
-8 -4 -11 -10z"/>
<path d="M1390 3929 c0 -5 5 -7 10 -4 6 3 10 8 10 11 0 2 -4 4 -10 4 -5 0 -10
-5 -10 -11z"/>
<path d="M6273 3915 c0 -8 4 -12 9 -9 4 3 8 9 8 15 0 5 -4 9 -8 9 -5 0 -9 -7
-9 -15z"/>
<path d="M4120 3538 c0 -9 5 -20 10 -23 13 -8 13 5 0 25 -8 13 -10 13 -10 -2z"/>
<path d="M3050 2950 c-9 -6 -10 -10 -3 -10 6 0 15 5 18 10 8 12 4 12 -15 0z"/>
<path d="M3006 2815 c-9 -26 -7 -32 5 -12 6 10 9 21 6 23 -2 3 -7 -2 -11 -11z"/>
<path d="M3823 2810 c-37 -22 -53 -48 -53 -85 l0 -25 40 20 c38 19 70 62 70
95 0 20 -18 19 -57 -5z"/>
<path d="M3655 2693 c-32 -8 -74 -42 -90 -73 -8 -16 -15 -55 -15 -89 0 -47 6
-72 33 -122 17 -34 44 -71 60 -83 25 -18 32 -19 87 -8 50 11 65 10 96 -3 34
-14 39 -14 68 3 17 10 44 39 60 65 l29 47 -20 23 c-57 62 -57 122 -1 183 23
26 13 37 -48 53 -31 8 -51 8 -86 -2 -37 -12 -52 -12 -89 -1 -46 14 -52 15 -84
7z"/>
<path d="M3017 2424 c-42 -22 -65 -39 -61 -46 4 -7 3 -8 -5 -4 -6 4 -27 1 -47
-6 -29 -10 -37 -10 -43 1 -5 8 -14 10 -21 6 -8 -5 -11 -4 -7 2 6 10 -13 23
-34 23 -21 0 -36 -59 -37 -142 0 -70 3 -92 18 -110 16 -20 22 -21 56 -12 46
12 73 3 169 -56 36 -22 69 -40 73 -40 5 0 27 9 50 20 l42 20 0 60 0 60 -47 30
c-26 17 -53 28 -59 26 -7 -3 -10 3 -7 15 3 11 28 30 59 45 49 23 54 28 54 58
0 35 -19 59 -60 74 -20 8 -38 3 -93 -24z m102 -26 c11 -30 10 -32 -59 -69 -33
-17 -60 -37 -60 -44 0 -17 59 -68 97 -84 33 -14 45 -43 32 -80 -15 -39 -37
-36 -148 22 -102 54 -108 56 -130 41 -43 -30 -53 -13 -50 85 l3 88 44 -23 44
-23 101 54 c56 30 106 54 110 55 4 0 11 -10 16 -22z"/>
<path d="M4383 2351 c-99 -47 -132 -118 -91 -198 31 -63 71 -83 165 -83 91 0
103 5 103 42 0 25 -3 29 -17 23 -10 -4 -38 -10 -63 -12 -39 -4 -51 -1 -78 22
-43 36 -44 84 -3 126 25 24 38 29 78 29 32 0 56 -7 73 -20 14 -11 39 -20 56
-20 38 0 70 -25 78 -63 8 -35 -33 -82 -64 -72 -16 5 -20 2 -20 -14 0 -26 28
-41 78 -41 124 0 152 189 36 245 -23 11 -51 28 -62 38 -16 14 -42 20 -114 23
-87 4 -97 3 -155 -25z"/>
<path d="M3224 2266 c-3 -8 -4 -25 -2 -38 2 -19 9 -23 32 -21 46 3 52 18 20
47 -34 29 -43 31 -50 12z"/>
<path d="M4442 2244 c-48 -34 -13 -92 48 -79 59 13 64 65 8 84 -17 6 -32 11
-32 11 -1 0 -12 -7 -24 -16z"/>
<path d="M4592 2198 c2 -12 11 -24 21 -26 14 -3 18 1 15 20 -2 12 -11 24 -21
26 -14 3 -18 -1 -15 -20z"/>
<path d="M5457 1960 c-3 -11 -1 -23 4 -26 5 -3 9 6 9 20 0 31 -6 34 -13 6z"/>
<path d="M6230 1930 c0 -5 4 -10 9 -10 6 0 13 5 16 10 3 6 -1 10 -9 10 -9 0
-16 -4 -16 -10z"/>
<path d="M6186 1914 c-11 -8 -16 -14 -10 -14 13 0 39 18 34 24 -3 2 -14 -2
-24 -10z"/>
<path d="M5880 1860 c27 -21 40 -25 40 -12 0 9 -44 32 -58 32 -4 0 4 -9 18
-20z"/>
<path d="M5925 1839 c-4 -6 -5 -11 -4 -12 2 -2 12 -9 22 -16 15 -12 20 -11 37
4 24 22 26 35 5 35 -8 0 -15 -7 -15 -15 0 -8 -4 -15 -10 -15 -5 0 -10 7 -10
15 0 17 -16 20 -25 4z"/>
<path d="M1950 1879 c0 -5 5 -7 10 -4 6 3 10 8 10 11 0 2 -4 4 -10 4 -5 0 -10
-5 -10 -11z"/>
<path d="M1866 1851 c-4 -5 3 -7 14 -4 23 6 26 13 6 13 -8 0 -17 -4 -20 -9z"/>
<path d="M1980 1845 c-14 -8 -53 -24 -88 -36 -35 -11 -61 -23 -58 -26 5 -5 74
18 141 47 22 10 47 20 55 23 10 4 9 6 -5 6 -11 0 -31 -6 -45 -14z"/>
<path d="M4875 1851 c-3 -5 -2 -12 3 -15 5 -3 9 1 9 9 0 17 -3 19 -12 6z"/>
<path d="M1360 913 c0 -6 -3 -18 -6 -27 -4 -12 0 -16 15 -16 12 0 21 4 21 8 0
13 -29 48 -30 35z"/>
<path d="M1906 948 c-18 -26 -21 -80 -6 -109 7 -12 21 -19 39 -19 22 0 31 7
41 30 31 75 -32 158 -74 98z"/>
<path d="M2432 908 c-20 -20 -14 -38 13 -38 23 0 25 2 14 23 -6 12 -13 23 -14
24 -1 2 -7 -3 -13 -9z"/>
<path d="M3227 952 c-11 -12 -17 -36 -17 -65 0 -38 4 -49 24 -62 32 -21 54
-10 66 35 21 76 -30 139 -73 92z"/>
<path d="M4070 911 c0 -5 -3 -16 -6 -25 -4 -12 0 -16 15 -16 22 0 25 8 15 34
-7 17 -24 22 -24 7z"/>
<path d="M4260 939 c0 -27 3 -30 27 -27 49 5 40 57 -9 58 -13 0 -18 -8 -18
-31z"/>
<path d="M6070 939 c0 -28 2 -30 32 -27 57 5 48 57 -9 58 -19 0 -23 -5 -23
-31z"/>
<path d="M571 6200 c-5 -155 -3 -1230 5 -2517 5 -957 4 -1133 -7 -1133 -12 0
-12 -2 0 -9 11 -7 13 -38 9 -157 l-4 -149 16 70 c19 79 19 -144 0 2410 -12
1509 -14 1667 -19 1485z"/>
<path d="M355 6220 c3 -5 8 -10 11 -10 2 0 4 5 4 10 0 6 -5 10 -11 10 -5 0 -7
-4 -4 -10z"/>
<path d="M65 5310 c-7 -11 2 -16 44 -25 22 -5 31 -4 27 3 -9 15 -65 32 -71 22z"/>
<path d="M104 3689 c-10 -17 13 -36 27 -22 12 12 4 33 -11 33 -5 0 -12 -5 -16
-11z"/>
<path d="M1252 3400 c0 -14 2 -19 5 -12 2 6 2 18 0 25 -3 6 -5 1 -5 -13z"/>
<path d="M1352 3405 c-11 -12 -10 -15 3 -15 8 0 15 7 15 15 0 18 -2 18 -18 0z"/>
<path d="M1381 3404 c0 -11 3 -14 6 -6 3 7 2 16 -1 19 -3 4 -6 -2 -5 -13z"/>
<path d="M1330 3366 c0 -2 7 -6 15 -10 8 -3 15 -1 15 4 0 6 -7 10 -15 10 -8 0
-15 -2 -15 -4z"/>
<path d="M1402 3300 c0 -14 2 -19 5 -12 2 6 2 18 0 25 -3 6 -5 1 -5 -13z"/>
<path d="M1391 3244 c0 -11 3 -14 6 -6 3 7 2 16 -1 19 -3 4 -6 -2 -5 -13z"/>
<path d="M1393 3140 c0 -47 2 -66 4 -42 2 23 2 61 0 85 -2 23 -4 4 -4 -43z"/>
<path d="M568 1545 c3 -608 11 -932 26 -1005 11 -50 59 -131 99 -166 53 -46
128 -81 198 -93 105 -19 5553 -33 5596 -15 13 5 -874 10 -2255 11 -1252 1
-2502 5 -2776 8 -471 6 -502 8 -555 27 -110 41 -215 129 -260 217 -48 93 -49
111 -57 818 -3 367 -10 715 -13 773 -4 58 -5 -201 -3 -575z"/>
<path d="M43 1223 c-18 -7 -16 -23 2 -23 8 0 15 7 15 15 0 8 -1 15 -2 14 -2 0
-9 -3 -15 -6z"/>
<path d="M75 681 c-3 -5 -1 -12 5 -16 5 -3 10 1 10 9 0 18 -6 21 -15 7z"/>
<path d="M408 53 c7 -3 16 -2 19 1 4 3 -2 6 -13 5 -11 0 -14 -3 -6 -6z"/>
<path d="M885 29 c-6 -19 0 -38 9 -28 10 12 16 49 7 49 -5 0 -13 -9 -16 -21z"/>
</g>
</svg>
